HIERARCHY
ROOT Hips
{
    OFFSET 0.000000 0.000000 0.000000
    CHANNELS 6 Xposition Yposition Zposition Zrotation Xrotation Yrotation
    JOINT Spine
    {
        OFFSET -0.000000 7.236184 0.000000
        CHANNELS 3 Zrotation Xrotation Yrotation
        JOINT Spine1
        {
            OFFSET -0.000000 20.420147 0.000000
            CHANNELS 3 Zrotation Xrotation Yrotation
            JOINT Neck
            {
                OFFSET -0.000000 20.336288 1.848754
                CHANNELS 3 Zrotation Xrotation Yrotation
                JOINT Head
                {
                    OFFSET -0.000000 12.354461 -1.764923
                    CHANNELS 3 Zrotation Xrotation Yrotation
                    End Site
                    {
                        OFFSET -0.000000 22.061537 0.000000
                    }
                }
            }
            JOINT LeftShoulder
            {
                OFFSET 3.573296 18.396038 -0.314103
                CHANNELS 3 Zrotation Xrotation Yrotation
                JOINT LeftArm
                {
                    OFFSET 10.880760 0.000000 0.000000
                    CHANNELS 3 Zrotation Xrotation Yrotation
                    JOINT LeftForeArm
                    {
                        OFFSET 27.185530 0.000000 0.000000
                        CHANNELS 3 Zrotation Xrotation Yrotation
                        JOINT LeftHand
                        {
                            OFFSET 27.825975 0.000000 0.000000
                            CHANNELS 3 Zrotation Xrotation Yrotation
                            End Site
                            {
                                OFFSET 13.236923 0.000000 0.000000
                            }
                        }
                    }
                }
            }
            JOINT RightShoulder
            {
                OFFSET -3.474926 18.396038 -0.314103
                CHANNELS 3 Zrotation Xrotation Yrotation
                JOINT RightArm
                {
                    OFFSET -10.880760 0.000000 0.000000
                    CHANNELS 3 Zrotation Xrotation Yrotation
                    JOINT RightForeArm
                    {
                        OFFSET -27.185530 0.000000 0.000000
                        CHANNELS 3 Zrotation Xrotation Yrotation
                        JOINT RightHand
                        {
                            OFFSET -27.825975 0.000000 0.000000
                            CHANNELS 3 Zrotation Xrotation Yrotation
                            End Site
                            {
                                OFFSET -13.236923 0.000000 0.000000
                            }
                        }
                    }
                }
            }
        }
    }
    JOINT LeftUpLeg
    {
        OFFSET 8.824615 0.000000 0.000000
        CHANNELS 3 Zrotation Xrotation Yrotation
        JOINT LeftLeg
        {
            OFFSET -0.000000 -35.111282 0.000000
            CHANNELS 3 Zrotation Xrotation Yrotation
            JOINT LeftFoot
            {
                OFFSET -0.000000 -42.324711 0.000000
                CHANNELS 3 Zrotation Xrotation Yrotation
                JOINT LeftToeBase
                {
                    OFFSET -0.000000 -5.735999 13.236923
                    CHANNELS 3 Zrotation Xrotation Yrotation
                    End Site
                    {
                        OFFSET -0.000000 0.000000 3.529846
                    }
                }
            }
        }
    }
    JOINT RightUpLeg
    {
        OFFSET -8.824615 0.000000 0.000000
        CHANNELS 3 Zrotation Xrotation Yrotation
        JOINT RightLeg
        {
            OFFSET -0.000000 -35.111282 0.000000
            CHANNELS 3 Zrotation Xrotation Yrotation
            JOINT RightFoot
            {
                OFFSET -0.000000 -42.324711 0.000000
                CHANNELS 3 Zrotation Xrotation Yrotation
                JOINT RightToeBase
                {
                    OFFSET -0.000000 -5.735999 13.236923
                    CHANNELS 3 Zrotation Xrotation Yrotation
                    End Site
                    {
                        OFFSET -0.000000 0.000000 3.529846
                    }
                }
            }
        }
    }
}
MOTION
Frames:    10
Frame Time:    0.008333
-23.008642    85.560501    96.752129    -5.248461    -10.207790    163.104935    -2.791859    -16.341063    1.045946    2.439637    9.735252    1.239094    3.270125    9.990638    -1.355117    9.411469    -12.756791    0.762769    -2.953682    18.554070    2.707994    -39.101265    47.082291    -44.979767    0.628436    -3.040713    -15.355918    18.782990    -2.728477    1.377880    11.617520    21.115887    -10.156407    33.952587    39.871510    42.703442    -1.151930    -7.325500    16.430056    -15.643320    -6.583212    -4.231096    -0.179637    -15.027445    -7.819877    0.184094    15.332050    7.106216    -1.469788    -9.115033    -9.751596    0.062184    -1.040993    -0.069060    -4.783704    -12.190414    0.696368    2.249751    7.414143    -0.653873    -1.139581    -2.801260    -13.741556    -1.221434    -1.200845    1.323268    
-23.166424    85.558357    96.731499    -5.316818    -10.237053    162.689835    -2.815642    -16.265162    1.022925    2.421348    9.684868    1.220228    3.298999    9.876394    -1.304349    9.399118    -12.764303    0.807945    -2.886328    18.509991    2.605754    -38.601170    47.347034    -45.317547    0.630565    -2.909688    -15.475073    18.765730    -2.606986    1.315498    11.605244    21.147200    -10.141744    34.171902    39.739182    42.643093    -1.347439    -7.649315    16.742537    -15.548052    -6.874063    -4.270167    -0.168691    -14.832702    -7.680379    0.055994    14.959114    7.381477    -1.389135    -9.115051    -9.714070    0.107041    -0.948669    -0.118857    -4.905306    -12.704562    0.843108    2.334748    8.068502    -0.524402    -1.077254    -2.806516    -13.799557    -1.195432    -1.382961    1.295429    
-23.321901    85.556396    96.711678    -5.387233    -10.265612    162.280212    -2.840358    -16.193636    1.001526    2.403227    9.638547    1.203043    3.331065    9.765201    -1.252627    9.379244    -12.772350    0.852047    -2.821906    18.466211    2.506520    -38.096382    47.602242    -45.656075    0.631837    -2.784516    -15.598586    18.757580    -2.489637    1.263198    11.595063    21.179411    -10.126935    34.383369    39.608681    42.582279    -1.534985    -7.976256    17.065302    -15.454049    -7.166877    -4.318184    -0.163722    -14.644941    -7.543864    -0.066278    14.594773    7.648865    -1.310440    -9.114278    -9.675751    0.151541    -0.856448    -0.168240    -5.023244    -13.212150    0.980943    2.416572    8.708282    -0.399237    -1.017435    -2.806290    -13.852687    -1.170395    -1.563337    1.268621    
-23.476093    85.554710    96.693192    -5.462656    -10.294679    161.872864    -2.864557    -16.127434    0.983199    2.382283    9.595994    1.189193    3.364240    9.656375    -1.199048    9.352607    -12.778978    0.896316    -2.759529    18.422073    2.411203    -37.589970    47.845978    -45.995640    0.630633    -2.666190    -15.724232    18.763573    -2.377835    1.219929    11.587295    21.213268    -10.111567    34.590378    39.479851    42.518986    -1.719584    -8.312132    17.403940    -15.359974    -7.466459    -4.377224    -0.167677    -14.467351    -7.409813    -0.182149    14.240582    7.909392    -1.233062    -9.111697    -9.636029    0.195181    -0.764880    -0.216652    -5.141672    -13.716794    1.106632    2.498398    9.333200    -0.283118    -0.961719    -2.796822    -13.896788    -1.146405    -1.744939    1.242936    
-23.629360    85.553268    96.676613    -5.545414    -10.325546    161.466614    -2.887409    -16.067871    0.968998    2.356841    9.556983    1.179596    3.398923    9.549713    -1.142373    9.315407    -12.783184    0.940706    -2.699512    18.376637    2.320901    -37.087933    48.075508    -46.333256    0.626622    -2.554893    -15.849819    18.787241    -2.271787    1.185379    11.582602    21.249748    -10.095606    34.794216    39.352627    42.452072    -1.905106    -8.660909    17.763205    -15.265196    -7.775798    -4.449638    -0.182431    -14.303737    -7.279485    -0.292011    13.898830    8.164051    -1.154963    -9.106322    -9.593884    0.237037    -0.675968    -0.263070    -5.263779    -14.220299    1.217801    2.583269    9.941112    -0.180980    -0.912056    -2.775267    -13.929786    -1.123568    -1.929677    1.218495    
-23.783167    85.552040    96.662346    -5.637436    -10.359585    161.056931    -2.908607    -16.014713    0.959219    2.326494    9.520061    1.174699    3.433732    9.444377    -1.081431    9.267185    -12.783990    0.986512    -2.641026    18.329231    2.235843    -36.592361    48.290581    -46.668934    0.620483    -2.449225    -15.975257    18.830902    -2.170152    1.159084    11.580828    21.289646    -10.079041    34.998734    39.225433    42.379333    -2.095473    -9.028576    18.151285    -15.169155    -8.099744    -4.537970    -0.209160    -14.155464    -7.151535    -0.395995    13.568301    8.415784    -1.074509    -9.097448    -9.549240    0.276554    -0.590169    -0.306878    -5.391763    -14.728547    1.312603    2.673653    10.535896    -0.096749    -0.869492    -2.739256    -13.950368    -1.101695    -2.121350    1.195100    
-23.934452    85.551125    96.650787    -5.736573    -10.396094    160.650848    -2.927446    -15.968090    0.954055    2.292933    9.484965    1.174491    3.467789    9.342486    -1.016600    9.206716    -12.780866    1.033068    -2.585300    18.281242    2.158542    -36.117462    48.485626    -46.994007    0.614043    -2.350118    -16.097740    18.893198    -2.073612    1.141205    11.581344    21.332514    -10.062261    35.202400    39.099136    42.300762    -2.287506    -9.409253    18.564999    -15.074575    -8.432913    -4.640793    -0.246305    -14.025325    -7.028589    -0.492710    13.255239    8.660881    -0.992729    -9.084952    -9.502572    0.312240    -0.510369    -0.346427    -5.522731    -15.231574    1.388228    2.769209    11.105686    -0.035470    -0.835980    -2.688700    -13.959595    -1.080911    -2.318422    1.172883    
-24.085352    85.550697    96.641556    -5.843461    -10.434673    160.240997    -2.943990    -15.926300    0.953472    2.257176    9.451080    1.178784    3.500290    9.242844    -0.946356    9.133150    -12.773396    1.081828    -2.531546    18.230791    2.087605    -35.663479    48.663338    -47.307697    0.609267    -2.254455    -16.219440    18.972876    -1.978823    1.130946    11.583719    21.378870    -10.045202    35.410648    38.969021    42.213528    -2.483091    -9.808425    19.015045    -14.981793    -8.780079    -4.758911    -0.293307    -13.909249    -6.908726    -0.583953    12.953692    8.905375    -0.909206    -9.068340    -9.453691    0.344126    -0.436785    -0.381754    -5.657516    -15.735737    1.444470    2.872283    11.658756    -0.000571    -0.811905    -2.622422    -13.958523    -1.060697    -2.526725    1.151294    
-24.233353    85.550941    96.634232    -5.955048    -10.473259    159.832428    -2.957742    -15.888713    0.957325    2.221615    9.419173    1.187163    3.530381    9.146872    -0.871050    9.046155    -12.761321    1.132238    -2.480716    18.180225    2.025142    -35.239979    48.820393    -47.604740    0.609031    -2.161789    -16.339008    19.062729    -1.885212    1.127460    11.586706    21.427786    -10.028517    35.621746    38.835354    42.118504    -2.678373    -10.218857    19.498512    -14.893801    -9.134832    -4.888899    -0.348352    -13.805542    -6.793297    -0.667915    12.666209    9.147936    -0.826743    -9.047585    -9.404677    0.371176    -0.370985    -0.411712    -5.792102    -16.231203    1.478792    2.981234    12.186680    0.003761    -0.797946    -2.542083    -13.948561    -1.041053    -2.745282    1.130327    
-24.378944    85.552010    96.628281    -6.070239    -10.510837    159.422012    -2.968509    -15.854315    0.965382    2.187914    9.389565    1.199175    3.557836    9.054512    -0.789926    8.944952    -12.744496    1.185091    -2.432497    18.125975    1.969057    -34.854626    48.959370    -47.876808    0.616374    -2.068947    -16.458284    19.154402    -1.789593    1.128026    11.589811    21.479788    -10.012680    35.837013    38.695965    42.015312    -2.874439    -10.640656    20.022097    -14.811880    -9.496852    -5.029725    -0.409729    -13.710230    -6.682246    -0.745941    12.389009    9.392711    -0.745731    -9.022494    -9.355568    0.393840    -0.313085    -0.436805    -5.924433    -16.718658    1.489531    3.095857    12.692636    -0.025803    -0.793998    -2.448613    -13.931906    -1.021699    -2.977968    1.109685    
